<svg style="margin-bottom:2px" width="20" height="22" viewBox="0 0 20 22" xmlns="http://www.w3.org/2000/svg"><path d="M6.99 21.325c0-.342-.013-1.47-.019-2.667-3.986.866-4.827-1.69-4.827-1.69C1.492 15.31.554 14.87.554 14.87-.747 13.98.65 14 .65 14c1.44.1 2.197 1.476 2.197 1.476 1.278 2.19 3.351 1.557 4.169 1.191.129-.926.5-1.558.91-1.916-3.183-.362-6.528-1.59-6.528-7.08 0-1.565.56-2.843 1.476-3.846-.149-.361-.639-1.818.139-3.792 0 0 1.203-.385 3.941 1.469a13.733 13.733 0 0 1 3.586-.482c1.218.005 2.445.164 3.59.482C16.865-.352 18.067.033 18.067.033c.78 1.974.289 3.43.14 3.792.919 1.003 1.475 2.281 1.475 3.846 0 5.503-3.352 6.714-6.542 7.069.513.445.971 1.316.971 2.653 0 1.917.02 3.162.02 3.932 0 .14-7.14.378-7.14 0z" fill="#E5E5E5" fill-rule="evenodd"/></svg>